<svg xmlns="http://www.w3.org/2000/svg" width="480" height="360" viewBox="0 0 480 360">
  <g id="iraq" transform="translate(-3806 -7278)">
    <g id="_544755648" transform="translate(3806 7278)">
      <path id="Path_297" data-name="Path 297" d="M3806,11665h480v145.129H3806Z" transform="translate(-3806 -11557.393)" fill="#fff" fill-rule="evenodd"/>
      <path id="Path_298" data-name="Path 298" d="M3806,7278h480v130.783H3806Z" transform="translate(-3806 -7278)" fill="#ce1126" fill-rule="evenodd"/>
      <path id="Path_299" data-name="Path 299" d="M3806,16544h480v130.811H3806Z" transform="translate(-3806 -16314.811)" fill-rule="evenodd"/>
    </g>
    <g id="_544754472" transform="translate(3938.256 7419.983)">
      <path id="Path_300" data-name="Path 300" d="M16077.676,13105.253a6.3,6.3,0,0,1-1.832-1.477c-.41-.629-.164-.629,1.531-.137,3.063.875,5,.547,6.973-1.23l1.723-1.56,2.023,1.094a6.357,6.357,0,0,0,2.652.93c.875-.245,2.707-2.733,2.625-3.608-.082-1.066.766-.794,1.176.382a4.273,4.273,0,0,1-2.461,5.523,5.313,5.313,0,0,1-3.5-.382c-1.887-.712-2.215-.685-3.172.082a6.717,6.717,0,0,1-7.738.41h0Z" transform="translate(-15917.251 -13091.312)" fill="#007a3d" fill-rule="evenodd"/>
      <path id="Path_301" data-name="Path 301" d="M16375.229,12838.75c-.737-1.012-1.64-4.812-1.34-5.742.246-.82.521-.984,1.2-.738,1.2.411,1.478,1.286,1.313,4.32-.138,2.462-.493,3.117-1.177,2.188h0Z" transform="translate(-16207.258 -12832.165)" fill="#007a3d" fill-rule="evenodd"/>
      <path id="Path_302" data-name="Path 302" d="M10361.188,12973c-.245,1.832,3.063,6.426,4.539,7.246-1.012.492-2.27.273-3.2.819-5.2,5.551-24.145,25.349-27.616,30.079,10.253.218,21.628-.137,31.253-.63,0-7.464,6.59-7.848,11.02-10.554,2.271,3.827,7.984,3.555,8.7,9.323v24.828h-87.637c-1.531,7.274-7.683,12.853-16.242,10.556,2.652-2.953,7.11-3.993,8.7-8.067,1.34-8.969-2.679-14.492-5.3-19.578,4.32-1.694,4.978-2.105,9.38-5.249-3.09,10.035,8.011,8.914,16.242,8.7.272-3.392.109-7.41-2.324-7.931,3.144-1.229,3.663-1.64,8.694-6.206v13.508c19.578,0,40.688-.164,60.676-.164,0-4.238,1.039-11.02-2.078-11.02-2.979,0-.137,8.7-2.461,8.7h-46.867c0-1.859-.055-5.771-.055-8.586,2-2.133,1.751-1.941,15.313-16.461,1.34-1.45,10.883-10.664,19.2-19.3h.082Z" transform="translate(-10282 -12969.148)" fill="#007a3d" fill-rule="evenodd"/>
      <path id="Path_303" data-name="Path 303" d="M17461,12958.027c3.281,1.887,5.852,4.484,9.871,5.578-.463,1.777-1.941,2.488-2.324,4.348v37.871c4.484,1.066,5.414-1.668,7.547-3.117.574,6.07,4.184,12,4.076,16.762h-19.143V12958h0Z" transform="translate(-17264.699 -12954.56)" fill="#007a3d" fill-rule="evenodd"/>
      <path id="Path_304" data-name="Path 304" d="M15625.116,13057.1s6.973-6.289,6.973-6.535v33.059h5c0-12.605-.164-25.375-.164-37.078,2.023-2.187,6.016-5.332,7.026-7.547v59.2c-14.137,0-40.5.028-44,.028-.656-12.278-.766-25.02,12.633-22.286v-5c-.41-.848-1.148.219-1.313-.9,2.133-2.27,2.845-2.844,8.586-8.23,0,6.48.109,21.82.109,21.82h5.087s.055-25.648.055-26.5h0Zm-16.516,26.2c.93,1.5,4.156,1.477,3.992-1.066C15612.046,13080.125,15607.835,13080.918,15608.6,13083.3Z" transform="translate(-15454.328 -13033.345)" fill="#007a3d" fill-rule="evenodd"/>
      <path id="Path_305" data-name="Path 305" d="M11175.359,15360.872a2.686,2.686,0,1,0-2.68,2.871A2.783,2.783,0,0,0,11175.359,15360.872Z" transform="translate(-11145.719 -15288.934)" fill="#007a3d" fill-rule="evenodd"/>
      <path id="Path_306" data-name="Path 306" d="M14299,12961.027c3.281,1.887,5.852,4.485,9.871,5.579-.465,1.776-1.941,2.488-2.324,4.348v37.87c4.484,1.066,5.414-1.667,7.547-3.117.574,6.07,4.184,12,4.074,16.763h-19.141V12961h0Z" transform="translate(-14189.16 -12957.478)" fill="#007a3d" fill-rule="evenodd"/>
    </g>
  </g>
</svg>
